<mxfile host="app.diagrams.net" modified="2024-04-08T06:46:54.665Z" agent="Mozilla/5.0 (X11; Linux x86_64; rv:122.0) Gecko/20100101 Firefox/122.0" version="24.2.2" etag="onrz0ao4xzDE-cG2VdZc" type="github">
  <diagram name="Page-1" id="MV6EFbp_kT8UWlnAivB6">
    <mxGraphModel>
      <root>
        <mxCell id="0" />
        <mxCell id="1" parent="0" />
      </root>
    </mxGraphModel>
  </diagram>
</mxfile>
